<?xml version="1.0" standalone="no"?>
<!DOCTYPE svg PUBLIC "-//W3C//DTD SVG 20010904//EN"
 "http://www.w3.org/TR/2001/REC-SVG-20010904/DTD/svg10.dtd">
<svg version="1.0" xmlns="http://www.w3.org/2000/svg"
 width="300.000000pt" height="111.000000pt" viewBox="0 0 300.000000 111.000000"
 preserveAspectRatio="xMidYMid meet">

<g transform="translate(0.000000,111.000000) scale(0.100000,-0.100000)"
fill="#000000" stroke="none">
<path d="M420 1064 c-173 -46 -318 -184 -370 -352 -27 -87 -27 -227 0 -314
116 -375 596 -492 875 -213 206 206 206 534 0 740 -132 132 -328 186 -505 139z
m249 -35 c75 -17 150 -59 215 -120 164 -153 202 -379 99 -584 -33 -64 -135
-165 -201 -199 -189 -96 -408 -66 -558 76 -106 100 -154 211 -154 352 0 219
132 401 340 467 62 20 190 24 259 8z"/>
<path d="M413 961 c-112 -42 -208 -133 -238 -227 -22 -71 -17 -172 13 -230 24
-47 85 -105 141 -134 54 -27 57 -26 25 13 -45 53 -64 105 -64 178 0 84 35 158
99 206 72 56 71 60 71 -175 0 -208 0 -209 24 -231 27 -25 96 -38 140 -27 l26
6 0 230 c0 183 3 230 13 230 15 0 77 -44 88 -62 5 -8 17 -3 39 15 24 20 42 27
76 27 24 0 44 4 44 9 0 5 -21 32 -46 60 -31 34 -70 63 -121 88 -71 35 -83 38
-177 40 -79 2 -112 -1 -153 -16z"/>
<path d="M825 707 c-57 -48 -20 -147 55 -147 44 0 84 40 84 83 0 76 -82 114
-139 64z"/>
<path d="M947 536 c-20 -15 -43 -21 -76 -21 l-48 0 -18 -50 c-24 -69 -97 -139
-167 -160 -170 -51 -326 -13 -449 109 -58 58 -60 45 -7 -56 40 -75 111 -141
196 -181 63 -30 74 -32 177 -32 103 0 114 2 178 32 123 59 213 175 238 309 6
30 9 59 7 63 -2 5 -16 -1 -31 -13z"/>
<path d="M1212 858 c-20 -20 -14 -28 23 -28 l35 0 0 -85 c0 -68 3 -85 15 -85
23 0 35 34 35 104 0 62 1 66 23 66 23 0 47 17 47 32 0 13 -165 9 -178 -4z"/>
<path d="M1451 856 c-48 -27 -64 -91 -36 -146 20 -38 43 -50 99 -50 35 0 48 5
56 20 10 19 8 20 -38 20 -36 0 -54 5 -67 20 -18 20 -17 20 11 20 32 0 54 15
54 37 0 9 -14 13 -42 13 l-43 1 24 19 c13 11 38 20 57 20 23 0 37 6 44 20 10
19 8 20 -42 20 -29 -1 -64 -7 -77 -14z"/>
<path d="M1601 788 c2 -92 11 -128 34 -128 11 0 15 11 15 37 l0 37 38 -37 c25
-24 47 -37 65 -37 15 0 27 3 27 7 0 4 -21 29 -47 55 l-47 48 42 43 c23 24 39
46 36 50 -16 16 -50 5 -81 -25 -29 -28 -33 -29 -33 -12 0 23 -18 44 -37 44
-10 0 -13 -20 -12 -82z"/>
<path d="M1810 765 c0 -58 4 -105 8 -105 19 0 32 27 32 69 l0 45 58 -57 c32
-31 63 -57 70 -57 9 0 12 29 12 105 0 86 -3 105 -15 105 -20 0 -35 -32 -35
-77 l0 -37 -58 57 c-32 31 -61 57 -65 57 -4 0 -7 -47 -7 -105z"/>
<path d="M2051 844 c-77 -64 -35 -184 65 -184 78 0 127 65 104 136 -25 73
-110 98 -169 48z m94 -26 c30 -14 42 -50 27 -83 -15 -33 -55 -42 -88 -20 -35
22 -31 83 6 102 30 15 24 15 55 1z"/>
<path d="M2260 851 c-5 -11 -10 -58 -10 -105 l0 -86 73 0 c68 0 97 10 97 32 0
4 -27 8 -60 8 l-60 0 0 85 c0 68 -3 85 -15 85 -8 0 -19 -9 -25 -19z"/>
<path d="M2468 841 c-28 -25 -33 -36 -33 -76 0 -40 5 -51 33 -76 45 -40 99
-40 144 0 28 25 33 36 33 76 0 40 -5 51 -33 76 -24 22 -42 29 -72 29 -30 0
-48 -7 -72 -29z m120 -40 c21 -27 11 -73 -20 -91 -25 -13 -31 -13 -55 0 -30
17 -38 38 -29 76 11 43 75 53 104 15z"/>
<path d="M2704 836 c-24 -24 -34 -43 -34 -66 0 -64 43 -109 103 -110 64 0 77
13 77 75 0 52 -1 55 -26 55 -33 0 -64 -17 -64 -35 0 -8 9 -15 20 -15 13 0 20
-7 20 -20 0 -25 -30 -26 -60 -2 -49 40 -14 112 54 112 30 0 56 15 56 32 0 4
-25 8 -56 8 -50 0 -59 -3 -90 -34z"/>
<path d="M2880 777 c0 -87 8 -117 32 -117 13 0 10 184 -4 198 -24 24 -28 11
-28 -81z"/>
<path d="M1200 519 c0 -84 10 -119 35 -119 22 0 21 162 -1 184 -28 29 -34 17
-34 -65z"/>
<path d="M1270 500 c0 -83 3 -100 15 -100 18 0 35 39 35 78 0 25 2 24 53 -26
29 -29 56 -52 60 -52 4 0 7 45 7 100 0 55 -4 100 -8 100 -19 0 -32 -27 -32
-69 l0 -46 -56 58 c-31 31 -60 57 -65 57 -5 0 -9 -45 -9 -100z"/>
<path d="M1470 512 c0 -82 8 -112 32 -112 4 0 8 18 8 40 0 35 3 40 23 40 23 0
47 17 47 32 0 4 -16 8 -35 8 -28 0 -35 4 -35 20 0 17 7 20 50 20 28 0 50 4 50
8 0 21 -29 32 -82 32 l-58 0 0 -88z"/>
<path d="M1654 566 c-38 -38 -43 -70 -19 -116 29 -57 102 -68 154 -24 67 56
24 174 -64 174 -29 0 -45 -8 -71 -34z m104 -22 c42 -29 18 -104 -35 -104 -25
0 -63 32 -63 54 0 21 40 66 59 66 9 0 27 -7 39 -16z"/>
<path d="M1850 591 c0 -16 25 -29 60 -33 24 -2 36 -9 38 -20 3 -15 -4 -18 -47
-18 l-51 0 0 -48 c0 -44 12 -72 32 -72 4 0 8 17 8 37 l0 37 38 -37 c21 -20 48
-37 60 -37 30 0 28 11 -8 45 -30 28 -30 29 -10 47 25 23 26 70 2 91 -20 18
-122 25 -122 8z"/>
<path d="M2040 512 c0 -82 8 -112 32 -112 4 0 8 24 8 53 l1 52 29 -35 30 -34
30 34 29 35 1 -52 c0 -54 6 -63 28 -41 13 13 17 188 5 188 -5 0 -27 -21 -50
-47 l-43 -48 -41 48 c-23 26 -45 47 -50 47 -5 0 -9 -40 -9 -88z"/>
<path d="M2477 582 c-10 -10 -17 -33 -17 -50 0 -37 22 -52 73 -52 21 0 37 -6
40 -14 9 -22 -2 -26 -60 -26 -46 0 -54 -3 -51 -17 3 -15 15 -19 65 -21 54 -3
63 0 77 20 35 50 3 98 -65 98 -33 0 -40 3 -37 18 2 11 14 18 38 20 35 4 60 17
60 33 0 5 -24 9 -53 9 -40 0 -58 -5 -70 -18z"/>
<path d="M2640 512 c0 -82 8 -112 32 -112 13 0 9 175 -4 188 -23 23 -28 11
-28 -76z"/>
<path d="M2297 495 l-47 -95 43 0 c40 0 67 13 67 32 0 4 -9 8 -20 8 -17 0 -18
3 -8 25 6 14 14 25 18 25 3 0 16 -20 28 -45 17 -36 27 -45 47 -45 l25 0 -47
95 c-26 52 -50 95 -53 95 -3 0 -27 -43 -53 -95z"/>
<path d="M1297 313 c-4 -3 -7 -22 -7 -40 0 -33 2 -34 33 -31 25 2 33 8 35 26
6 38 -37 69 -61 45z m41 -35 c-5 -32 -28 -35 -28 -4 0 17 5 26 16 26 10 0 14
-7 12 -22z"/>
<path d="M2140 300 c-17 -33 -4 -60 31 -60 22 0 29 5 29 20 0 11 -7 20 -15 20
-9 0 -12 -6 -8 -16 4 -12 2 -15 -8 -12 -8 2 -16 15 -17 28 -3 20 0 22 23 18
16 -4 24 -1 22 6 -7 21 -45 18 -57 -4z"/>
<path d="M2887 314 c-4 -4 -7 -23 -7 -41 0 -33 2 -34 32 -31 35 3 55 38 23 38
-11 0 -15 -5 -11 -15 3 -9 0 -15 -8 -15 -8 0 -16 6 -19 13 -8 21 9 41 28 33
11 -4 15 -2 13 6 -5 15 -40 22 -51 12z"/>
<path d="M1210 275 c0 -19 5 -35 10 -35 6 0 10 5 10 10 0 6 9 10 20 10 15 0
20 7 20 25 0 21 -5 25 -30 25 -28 0 -30 -3 -30 -35z m42 10 c0 -5 -5 -11 -11
-13 -6 -2 -11 4 -11 13 0 9 5 15 11 13 6 -2 11 -8 11 -13z"/>
<path d="M1379 278 c-5 -37 -4 -38 26 -37 22 1 24 3 8 6 -16 3 -23 13 -25 36
l-3 32 -6 -37z"/>
<path d="M1440 275 c0 -19 5 -35 10 -35 6 0 10 16 10 35 0 19 -4 35 -10 35 -5
0 -10 -16 -10 -35z"/>
<path d="M1488 303 c6 -2 12 -18 12 -34 0 -16 5 -29 10 -29 6 0 10 13 10 29 0
16 6 32 13 34 6 3 -4 5 -23 5 -19 0 -29 -2 -22 -5z"/>
<path d="M1550 275 c0 -33 2 -35 33 -34 23 1 26 3 10 6 -13 2 -23 8 -23 13 0
5 10 11 23 13 l22 4 -22 2 c-13 0 -23 5 -23 10 0 5 10 12 23 14 16 3 13 5 -10
6 -31 1 -33 -1 -33 -34z"/>
<path d="M1630 275 c0 -19 5 -35 10 -35 6 0 10 8 10 17 0 15 2 14 14 -3 8 -10
18 -16 22 -12 4 4 1 14 -6 23 -10 12 -10 18 0 30 15 18 -1 20 -18 3 -9 -9 -12
-9 -12 0 0 7 -4 12 -10 12 -5 0 -10 -16 -10 -35z"/>
<path d="M1710 275 c0 -41 20 -48 21 -7 l1 27 10 -28 c14 -39 42 -32 46 11 2
18 -1 32 -7 32 -6 0 -11 -12 -11 -27 l-1 -28 -15 28 c-21 39 -44 35 -44 -8z"/>
<path d="M1813 275 c0 -22 2 -30 4 -17 2 12 2 30 0 40 -3 9 -5 -1 -4 -23z"/>
<path d="M1850 275 c0 -31 3 -37 11 -25 8 11 12 12 16 3 2 -7 12 -13 20 -13
12 0 13 3 3 15 -6 8 -9 23 -5 35 7 21 -9 28 -21 9 -4 -8 -9 -7 -15 2 -6 9 -9
0 -9 -26z"/>
<path d="M1962 275 c-1 -19 3 -35 8 -35 6 0 10 12 10 28 l1 27 15 -27 c21 -40
44 -36 44 7 0 38 -20 50 -21 13 l0 -23 -11 23 c-18 36 -45 28 -46 -13z"/>
<path d="M2060 275 c0 -33 2 -35 33 -34 23 1 26 3 10 6 -13 2 -23 8 -23 13 0
5 10 11 23 13 l22 4 -22 2 c-13 0 -23 5 -23 10 0 5 10 12 23 14 16 3 13 5 -10
6 -31 1 -33 -1 -33 -34z"/>
<path d="M2220 275 c0 -33 2 -35 33 -34 23 1 26 3 10 6 -13 2 -23 8 -23 13 0
5 10 11 23 13 l22 4 -22 2 c-13 0 -23 5 -23 10 0 5 10 12 23 14 16 3 13 5 -10
6 -31 1 -33 -1 -33 -34z"/>
<path d="M2300 275 c0 -35 13 -47 24 -22 5 10 7 10 12 0 11 -23 20 -13 21 22
1 32 -1 35 -28 35 -26 0 -29 -3 -29 -35z m40 15 c0 -5 -4 -10 -10 -10 -5 0
-10 5 -10 10 0 6 5 10 10 10 6 0 10 -4 10 -10z"/>
<path d="M2380 275 c0 -19 5 -35 10 -35 6 0 10 16 10 35 0 19 -4 35 -10 35 -5
0 -10 -16 -10 -35z"/>
<path d="M2460 275 c0 -19 5 -35 10 -35 6 0 10 5 10 10 0 6 9 10 20 10 15 0
20 7 20 25 0 21 -5 25 -30 25 -28 0 -30 -3 -30 -35z m40 10 c0 -8 -4 -15 -10
-15 -5 0 -10 7 -10 15 0 8 5 15 10 15 6 0 10 -7 10 -15z"/>
<path d="M2540 284 c-15 -38 -13 -40 25 -40 19 0 35 1 35 2 0 0 -5 15 -11 33
-13 38 -36 40 -49 5z m27 -16 c-3 -7 -5 -2 -5 12 0 14 2 19 5 13 2 -7 2 -19 0
-25z"/>
<path d="M2620 275 c0 -32 2 -35 30 -35 28 0 30 3 30 35 0 32 -2 35 -30 35
-28 0 -30 -3 -30 -35z m45 0 c0 -28 -29 -25 -33 3 -3 19 0 23 15 20 10 -2 18
-12 18 -23z"/>
<path d="M2710 298 c0 -7 -3 -22 -6 -33 -5 -18 -1 -21 29 -21 34 0 34 1 26 30
-5 17 -9 32 -9 33 0 2 -9 3 -20 3 -11 0 -20 -6 -20 -12z m30 -19 c0 -11 -4
-18 -10 -14 -5 3 -7 12 -3 20 7 21 13 19 13 -6z"/>
<path d="M2780 275 c0 -19 5 -35 10 -35 6 0 10 12 10 28 l1 27 15 -27 c21 -40
44 -36 44 7 0 41 -20 48 -21 8 l-1 -28 -10 28 c-6 16 -17 27 -29 27 -15 0 -19
-7 -19 -35z"/>
</g>
</svg>
